<?xml version="1.0" encoding="UTF-8"?>
<svg width="2447px" height="2447px" viewBox="0 0 2447 2447" version="1.1" xmlns="http://www.w3.org/2000/svg" xmlns:xlink="http://www.w3.org/1999/xlink">
    <!-- Generator: Sketch 51.2 (57519) - http://www.bohemiancoding.com/sketch -->
    <title>SpecTapular-Logo</title>
    <desc>Created with Sketch.</desc>
    <defs>
        <radialGradient cx="65.150567%" cy="57.7709951%" fx="65.150567%" fy="57.7709951%" r="155.254973%" id="radialGradient-1">
            <stop stop-color="#EBC1C1" offset="0%"></stop>
            <stop stop-color="#7D80CF" offset="100%"></stop>
        </radialGradient>
        <radialGradient cx="50%" cy="2.01242848%" fx="50%" fy="2.01242848%" r="95.0024766%" gradientTransform="translate(0.500000,0.020124),scale(0.976928,1.000000),rotate(90.000000),translate(-0.500000,-0.020124)" id="radialGradient-2">
            <stop stop-color="#5A5858" offset="0%"></stop>
            <stop stop-color="#000000" offset="100%"></stop>
        </radialGradient>
        <radialGradient cx="32.3711807%" cy="31.0197902%" fx="32.3711807%" fy="31.0197902%" r="114.314431%" gradientTransform="translate(0.323712,0.310198),scale(1.000000,0.726700),rotate(72.430469),translate(-0.323712,-0.310198)" id="radialGradient-3">
            <stop stop-color="#EEEEEE" offset="0%"></stop>
            <stop stop-color="#8F8E8E" offset="100%"></stop>
        </radialGradient>
        <radialGradient cx="50%" cy="50%" fx="50%" fy="50%" r="100%" gradientTransform="translate(0.500000,0.500000),scale(0.820896,1.000000),rotate(90.000000),translate(-0.500000,-0.500000)" id="radialGradient-4">
            <stop stop-color="#FFFFFF" offset="0%"></stop>
            <stop stop-color="#D4D4D4" offset="100%"></stop>
        </radialGradient>
        <linearGradient x1="0%" y1="37.6685049%" x2="100%" y2="87.8413405%" id="linearGradient-5">
            <stop stop-color="#1D1D1D" offset="0%"></stop>
            <stop stop-color="#969191" offset="69.6665135%"></stop>
            <stop stop-color="#191919" offset="100%"></stop>
        </linearGradient>
        <linearGradient x1="0%" y1="71.5568296%" x2="111.637931%" y2="78.5124002%" id="linearGradient-6">
            <stop stop-color="#5E5E5E" offset="0%"></stop>
            <stop stop-color="#8D8585" offset="61.64088%"></stop>
            <stop stop-color="#333333" offset="100%"></stop>
        </linearGradient>
        <linearGradient x1="-33.9160661%" y1="68.2383578%" x2="127.132159%" y2="89.4485294%" id="linearGradient-7">
            <stop stop-color="#7C7777" offset="0%"></stop>
            <stop stop-color="#FFFFFF" offset="52.6050506%"></stop>
            <stop stop-color="#484545" offset="100%"></stop>
        </linearGradient>
        <path d="M152,331 C126,361.5 164,417 192,458.5 C208,446.833333 227.885803,436.833333 251.657409,428.5 C272.219136,432.833333 290.5,442.833333 306.5,458.5 C363,391 368.943651,351.656626 350,333 C325.666667,367 292.885803,395 251.657409,417 C215.55247,393.666667 182.333333,365 152,331 Z" id="path-8"></path>
        <filter x="-3.2%" y="-3.9%" width="106.5%" height="111.0%" filterUnits="objectBoundingBox" id="filter-9">
            <feOffset dx="0" dy="2" in="SourceAlpha" result="shadowOffsetOuter1"></feOffset>
            <feGaussianBlur stdDeviation="2" in="shadowOffsetOuter1" result="shadowBlurOuter1"></feGaussianBlur>
            <feComposite in="shadowBlurOuter1" in2="SourceAlpha" operator="out" result="shadowBlurOuter1"></feComposite>
            <feColorMatrix values="0 0 0 0 0   0 0 0 0 0   0 0 0 0 0  0 0 0 0.5 0" type="matrix" in="shadowBlurOuter1"></feColorMatrix>
        </filter>
        <radialGradient cx="50%" cy="2.01242848%" fx="50%" fy="2.01242848%" r="95.0024766%" gradientTransform="translate(0.500000,0.020124),scale(0.976928,1.000000),rotate(90.000000),translate(-0.500000,-0.020124)" id="radialGradient-10">
            <stop stop-color="#5A5858" offset="0%"></stop>
            <stop stop-color="#000000" offset="100%"></stop>
        </radialGradient>
        <radialGradient cx="32.3711807%" cy="31.0197902%" fx="32.3711807%" fy="31.0197902%" r="114.314431%" gradientTransform="translate(0.323712,0.310198),scale(1.000000,0.726700),rotate(72.430469),translate(-0.323712,-0.310198)" id="radialGradient-11">
            <stop stop-color="#EEEEEE" offset="0%"></stop>
            <stop stop-color="#8F8E8E" offset="100%"></stop>
        </radialGradient>
        <radialGradient cx="50%" cy="50%" fx="50%" fy="50%" r="100%" gradientTransform="translate(0.500000,0.500000),scale(0.820896,1.000000),rotate(90.000000),translate(-0.500000,-0.500000)" id="radialGradient-12">
            <stop stop-color="#FFFFFF" offset="0%"></stop>
            <stop stop-color="#D4D4D4" offset="100%"></stop>
        </radialGradient>
        <path d="M95.813825,208.647211 C79.4246181,227.873011 103.378074,262.857665 121.027989,289.01736 C131.113655,281.663229 143.648753,275.359688 158.633282,270.106737 C171.594452,272.838271 183.117869,279.141813 193.203535,289.01736 C228.818543,246.468458 232.565147,221.6682 220.623939,209.907919 C205.285322,231.339959 184.62177,248.989874 158.633282,262.857665 C135.874385,248.149402 114.934566,230.079251 95.813825,208.647211 Z" id="path-13"></path>
        <filter x="-5.1%" y="-6.2%" width="110.3%" height="117.4%" filterUnits="objectBoundingBox" id="filter-14">
            <feOffset dx="0" dy="2" in="SourceAlpha" result="shadowOffsetOuter1"></feOffset>
            <feGaussianBlur stdDeviation="2" in="shadowOffsetOuter1" result="shadowBlurOuter1"></feGaussianBlur>
            <feComposite in="shadowBlurOuter1" in2="SourceAlpha" operator="out" result="shadowBlurOuter1"></feComposite>
            <feColorMatrix values="0 0 0 0 0   0 0 0 0 0   0 0 0 0 0  0 0 0 0.5 0" type="matrix" in="shadowBlurOuter1"></feColorMatrix>
        </filter>
        <radialGradient cx="50%" cy="2.01242848%" fx="50%" fy="2.01242848%" r="95.0024766%" gradientTransform="translate(0.500000,0.020124),scale(0.976928,1.000000),rotate(90.000000),translate(-0.500000,-0.020124)" id="radialGradient-15">
            <stop stop-color="#5A5858" offset="0%"></stop>
            <stop stop-color="#000000" offset="100%"></stop>
        </radialGradient>
        <radialGradient cx="32.3711807%" cy="31.0197902%" fx="32.3711807%" fy="31.0197902%" r="114.314431%" gradientTransform="translate(0.323712,0.310198),scale(1.000000,0.726700),rotate(72.430469),translate(-0.323712,-0.310198)" id="radialGradient-16">
            <stop stop-color="#EEEEEE" offset="0%"></stop>
            <stop stop-color="#8F8E8E" offset="100%"></stop>
        </radialGradient>
        <radialGradient cx="50%" cy="50%" fx="50%" fy="50%" r="100%" gradientTransform="translate(0.500000,0.500000),scale(0.820896,1.000000),rotate(90.000000),translate(-0.500000,-0.500000)" id="radialGradient-17">
            <stop stop-color="#FFFFFF" offset="0%"></stop>
            <stop stop-color="#D4D4D4" offset="100%"></stop>
        </radialGradient>
        <path d="M66.8756787,145.63059 C55.4364179,159.049723 72.1553376,183.468145 84.4745416,201.726965 C91.5140867,196.593964 100.263275,192.194248 110.722105,188.527818 C119.768681,190.434362 127.811741,194.834077 134.851286,201.726965 C159.70968,172.028884 162.324718,154.718918 153.99005,146.510533 C143.284075,161.469566 128.861427,173.78877 110.722105,183.468145 C94.8369586,173.202142 80.2214831,160.589623 66.8756787,145.63059 Z" id="path-18"></path>
        <filter x="-7.4%" y="-8.9%" width="114.7%" height="125.0%" filterUnits="objectBoundingBox" id="filter-19">
            <feOffset dx="0" dy="2" in="SourceAlpha" result="shadowOffsetOuter1"></feOffset>
            <feGaussianBlur stdDeviation="2" in="shadowOffsetOuter1" result="shadowBlurOuter1"></feGaussianBlur>
            <feComposite in="shadowBlurOuter1" in2="SourceAlpha" operator="out" result="shadowBlurOuter1"></feComposite>
            <feColorMatrix values="0 0 0 0 0   0 0 0 0 0   0 0 0 0 0  0 0 0 0.5 0" type="matrix" in="shadowBlurOuter1"></feColorMatrix>
        </filter>
        <text id="text-20" font-family="Helvetica-Light, Helvetica" font-size="280" font-weight="300" fill="#000000">
            <tspan x="127" y="2155">SpecTapular</tspan>
        </text>
        <filter x="-0.6%" y="-3.0%" width="101.8%" height="108.3%" filterUnits="objectBoundingBox" id="filter-21">
            <feOffset dx="4" dy="4" in="SourceAlpha" result="shadowOffsetOuter1"></feOffset>
            <feGaussianBlur stdDeviation="4" in="shadowOffsetOuter1" result="shadowBlurOuter1"></feGaussianBlur>
            <feColorMatrix values="0 0 0 0 0   0 0 0 0 0   0 0 0 0 0  0 0 0 0.5 0" type="matrix" in="shadowBlurOuter1"></feColorMatrix>
        </filter>
    </defs>
    <g id="Page-1" stroke="none" stroke-width="1" fill="none" fill-rule="evenodd">
        <rect id="bg" stroke="#979797" fill="url(#radialGradient-1)" x="0.5" y="0.5" width="2446" height="2446"></rect>
        <g id="teddy-drop" transform="translate(2024.000000, 2034.500000) scale(1, -1) rotate(-360.000000) translate(-2024.000000, -2034.500000) translate(1775.000000, 1733.000000)">
            <path d="M233,254.5 C314.185858,254.5 395.5,292.948821 395.5,190.5 C395.5,88.0511789 392.5,19 309,7 C270.5,18 255,-15.5 185.5,11.5 C139.545767,29.3527235 121.290165,104.35034 131,183 C139.579421,252.493311 151.814142,254.5 233,254.5 Z" id="hair" fill="url(#radialGradient-2)"></path>
            <path d="M267.5,48 C276,50.5 265.696038,64.8108838 289.5,72 C313.303962,79.1891162 322.637063,66.1771878 337,72 C346.575291,75.8818748 353.575291,88.0485415 358,108.5 C358,120.166667 356.666667,131.166667 354,141.5 C350,157 359.388883,190.425657 365.5,198 C371.611117,205.574343 378.707796,180.349221 386.5,185.5 C394.292204,190.650779 401.76677,192.14401 395,220.5 C388.23323,248.85599 375.721321,248.527454 365.5,273.5 C355.278679,298.472546 355.278679,308 351,328 C346.721321,348 272,419 249,419 C233.666667,419 200.5,388.666667 149.5,328 C140.833333,310.333333 135.166667,293.833333 132.5,278.5 C130.5,275.166667 129.5,253.333333 129.5,213 C129.5,152.5 125.303348,147.068404 129.5,120 C133.696652,92.9315965 149.5,65.5 173.5,57.5 C197.5,49.5 216,63 237,57.5 C258,52 259,45.5 267.5,48 Z" id="face" fill="url(#radialGradient-3)"></path>
            <ellipse id="spectacle" stroke="#979797" fill="url(#radialGradient-4)" cx="259.5" cy="181.5" rx="33.5" ry="27.5"></ellipse>
            <ellipse id="spectacle" stroke="#979797" fill="url(#radialGradient-4)" cx="169.5" cy="181.5" rx="33.5" ry="27.5"></ellipse>
            <path d="M205.5,163 C208.833333,165 208.833333,172.5 205.5,185.5 C200.5,205 186.5,216.646318 186.5,230.5 C186.5,244.353682 193.25,250 205.5,250 C217.75,250 229.5,236 236.5,241 C243.5,246 222.640072,250 228,250 C233.359928,250 250.5,255.539824 250.5,241 C250.5,231.306784 247,220.640117 240,209" id="Path-3" stroke="#4D4C4C"></path>
            <path d="M210.5,265.5 C210.5,288 240,287 261,298 C282,309 275.751222,329.877253 282,327.5 C288.248778,325.122747 299.210675,316.908241 289.5,294.25 C279.789325,271.591759 266.406411,260.780618 250.5,254 C234.593589,247.219382 210.5,254.733446 210.5,265.5 Z" id="Path-4" stroke="#979797"></path>
            <path d="M214.929005,257.867768 C222.630235,251.765813 238.785424,249.006287 250.5,254 C266.406411,260.780618 279.789325,271.591759 289.5,294.25 C299.210675,316.908241 288.248778,325.122747 282,327.5 C275.751222,329.877253 282,309 261,298 C244.69616,289.459893 223.268897,288.152853 214.50082,277.466181 C205.523184,287.772936 184.443045,289.156406 168.352901,297.584577 C147.352901,308.584577 153.601679,329.461829 147.352901,327.084577 C141.104123,324.707324 130.142226,316.492817 139.852901,293.834577 C149.563575,271.176336 162.94649,260.365194 178.852901,253.584577 C190.830127,248.4789 207.449323,251.478029 214.929005,257.867768 Z" id="mustache" fill="#292929"></path>
            <polygon id="shirt-back-panel" fill="#F3F3F3" points="191 451 249.5 422 309 444 292 511 218.5 511"></polygon>
            <g id="tie" transform="translate(211.000000, 425.000000)">
                <polygon id="Path-5" fill="url(#linearGradient-5)" points="0 18.5 41 0.5 83 18.5 60.5 54 26 54"></polygon>
                <polygon id="Path-5" fill="url(#linearGradient-6)" transform="translate(43.750000, 116.000000) scale(1, -1) translate(-43.750000, -116.000000) " points="7.5 147 43.75 54 80 147 60.5 178 26 178"></polygon>
            </g>
            <g id="collar">
                <use fill="black" fill-opacity="1" filter="url(#filter-9)" xlink:href="#path-8"></use>
                <use fill="url(#linearGradient-7)" fill-rule="evenodd" xlink:href="#path-8"></use>
            </g>
            <path d="M293.5,184 C308.5,337.666667 334.166667,419.666667 370.5,430" id="Path-2" stroke="#313131" stroke-width="2"></path>
            <path d="M203.5,179.5 C207.833333,176.5 211.666667,175 215,175 C218.333333,175 222,176.5 226,179.5" id="Path-7" stroke="#979797"></path>
        </g>
        <g id="teddy-drop" transform="translate(2116.000000, 1564.500000) scale(1, -1) rotate(-360.000000) translate(-2116.000000, -1564.500000) translate(1959.000000, 1374.000000)">
            <path d="M146.872508,160.425121 C198.048348,160.425121 249.305051,184.661494 249.305051,120.082458 C249.305051,55.5034227 247.413989,11.9767281 194.779421,4.41247878 C170.510787,11.346374 160.740299,-9.77048873 116.930688,7.24907229 C87.9632482,18.5026099 76.4557545,65.7776661 82.5763886,115.354802 C87.984462,159.160197 95.6966685,160.425121 146.872508,160.425121 Z" id="hair" fill="url(#radialGradient-10)"></path>
            <path d="M168.619725,30.2569974 C173.977735,31.8328826 167.48259,40.8538071 182.487515,45.385496 C197.492441,49.917185 203.375599,41.7150624 212.429336,45.385496 C218.46516,47.8324518 222.877639,55.5017602 225.666772,68.3934211 C225.666772,75.7475524 224.8263,82.6814477 223.145356,89.1951068 C220.623939,98.9655956 226.54226,120.035596 230.394428,124.810114 C234.246596,129.584632 238.720017,113.683873 243.631864,116.930688 C248.543712,120.177502 253.255336,121.118767 248.989874,138.993082 C244.724413,156.867396 236.83748,156.660303 230.394428,172.40185 C223.951376,188.143396 223.951376,194.149066 221.254293,206.756149 C218.55721,219.363231 171.456318,264.118373 156.958174,264.118373 C147.292744,264.118373 126.385999,244.997631 94.2379397,206.756149 C88.7748707,195.619893 85.2028641,185.21905 83.5219198,175.55362 C82.2612116,173.45244 81.6308575,159.689708 81.6308575,134.265426 C81.6308575,96.129002 78.9854808,92.7051729 81.6308575,75.6424934 C84.2762341,58.579814 94.2379397,41.2881943 109.366438,36.2453614 C124.494937,31.2025285 136.156488,39.712309 149.393924,36.2453614 C162.631361,32.7784138 163.261715,28.6811121 168.619725,30.2569974 Z" id="face" fill="url(#radialGradient-11)"></path>
            <ellipse id="spectacle" stroke="#979797" fill="url(#radialGradient-12)" cx="163.576892" cy="114.409271" rx="21.1168627" ry="17.3347381"></ellipse>
            <ellipse id="spectacle" stroke="#979797" fill="url(#radialGradient-12)" cx="106.845022" cy="114.409271" rx="21.1168627" ry="17.3347381"></ellipse>
            <path d="M129.53777,102.74772 C131.63895,104.008428 131.63895,108.736084 129.53777,116.930688 C126.385999,129.222593 117.561042,136.563897 117.561042,145.296623 C117.561042,154.029348 121.815932,157.588528 129.53777,157.588528 C137.259608,157.588528 144.666269,148.76357 149.078747,151.915341 C153.491226,155.067112 140.342085,157.588528 143.720737,157.588528 C147.09939,157.588528 157.903705,161.080579 157.903705,151.915341 C157.903705,145.805182 155.697466,139.081405 151.284987,131.744009" id="Path-3" stroke="#4D4C4C"></path>
            <path d="M132.689541,167.359017 C132.689541,181.541984 151.284987,180.91163 164.522423,187.845525 C177.75986,194.779421 173.820916,207.939483 177.75986,206.440972 C181.698803,204.942461 188.608679,199.764412 182.487515,185.481697 C176.366352,171.198982 167.930377,164.384135 157.903705,160.109944 C147.877033,155.835754 132.689541,160.572275 132.689541,167.359017 Z" id="Path-4" stroke="#979797"></path>
            <path d="M135.481382,162.548008 C140.335884,158.701615 150.519374,156.962137 157.903705,160.109944 C167.930377,164.384135 176.366352,171.198982 182.487515,185.481697 C188.608679,199.764412 181.698803,204.942461 177.75986,206.440972 C173.820916,207.939483 177.75986,194.779421 164.522423,187.845525 C154.24523,182.462234 140.738467,181.638336 135.211474,174.901948 C129.552384,181.398853 116.264432,182.27093 106.121943,187.583662 C92.884507,194.517557 96.8234501,207.677619 92.884507,206.179108 C88.9455639,204.680597 82.0356875,199.502549 88.1568512,185.219834 C94.2780148,170.937119 102.71399,164.122271 112.740662,159.848081 C120.290555,156.629696 130.766534,158.520209 135.481382,162.548008 Z" id="mustache" fill="#292929"></path>
            <polygon id="shirt-back-panel" fill="#F3F3F3" points="120.397635 284.289704 157.273351 266.009435 194.779421 279.877226 184.063401 322.110951 137.732373 322.110951"></polygon>
            <g id="tie" transform="translate(133.004718, 267.900498)">
                <polygon id="Path-5" fill="url(#linearGradient-5)" points="0 11.6615511 25.8445186 0.315177056 52.3193913 11.6615511 38.1364238 34.039122 16.3892069 34.039122"></polygon>
                <polygon id="Path-5" fill="url(#linearGradient-6)" transform="translate(27.577992, 73.121077) scale(1, -1) translate(-27.577992, -73.121077) " points="4.72765584 92.6620544 27.5779924 34.039122 50.4283289 92.6620544 38.1364238 112.203032 16.3892069 112.203032"></polygon>
            </g>
            <g id="collar">
                <use fill="black" fill-opacity="1" filter="url(#filter-14)" xlink:href="#path-13"></use>
                <use fill="url(#linearGradient-7)" fill-rule="evenodd" xlink:href="#path-13"></use>
            </g>
            <path d="M185.008932,115.985157 C194.464243,212.849572 210.643332,264.538609 233.546198,271.052268" id="Path-2" stroke="#313131" stroke-width="2"></path>
            <path d="M128.277062,113.148563 C131.008596,111.257501 133.424954,110.31197 135.526134,110.31197 C137.627314,110.31197 139.938613,111.257501 142.460029,113.148563" id="Path-7" stroke="#979797"></path>
        </g>
        <g id="teddy-drop" transform="translate(2063.500000, 1241.000000) scale(1, -1) rotate(-360.000000) translate(-2063.500000, -1241.000000) translate(1954.000000, 1108.000000)">
            <path d="M102.513376,111.972765 C138.232846,111.972765 174.008756,128.889153 174.008756,83.8145842 C174.008756,38.7400155 172.688842,8.35945984 135.951215,3.079801 C119.01231,7.91948827 112.192751,-6.81955935 81.6147264,5.05967306 C61.3961704,12.9143639 53.3642246,45.9111831 57.6362758,80.5147974 C61.4109772,111.089879 66.7939064,111.972765 102.513376,111.972765 Z" id="hair" fill="url(#radialGradient-15)"></path>
            <path d="M117.692395,21.1186354 C121.432154,22.2185643 116.898703,28.5149464 127.37177,31.6779531 C137.844836,34.8409598 141.951135,29.1160812 148.270419,31.6779531 C152.483275,33.3858677 155.563076,38.7388551 157.509822,47.7369154 C157.509822,52.8699171 156.923194,57.7096044 155.749936,62.2559773 C153.99005,69.0755366 158.120891,83.7818755 160.809609,87.114371 C163.498327,90.4468665 166.620664,79.3485301 170.049012,81.6147264 C173.47736,83.8809226 176.765957,84.537902 173.78877,97.0137313 C170.811584,109.489561 165.3067,109.345014 160.809609,120.332225 C156.312518,131.319435 156.312518,135.511244 154.430021,144.310675 C152.547524,153.110107 119.672267,184.348088 109.552921,184.348088 C102.80669,184.348088 88.2142999,171.002284 65.7757498,144.310675 C61.9626629,136.537844 59.4694906,129.278313 58.2962331,122.532082 C57.41629,121.065511 56.9763184,111.459465 56.9763184,93.7139446 C56.9763184,67.0956645 55.129911,64.7059165 56.9763184,52.7965885 C58.8227259,40.8872605 65.7757498,28.8181379 76.3350675,25.2983653 C86.8943852,21.7785928 95.0338593,27.718209 104.273262,25.2983653 C113.512665,22.8785217 113.952637,20.0187065 117.692395,21.1186354 Z" id="face" fill="url(#radialGradient-16)"></path>
            <ellipse id="spectacle" stroke="#979797" fill="url(#radialGradient-17)" cx="114.172623" cy="79.8548401" rx="14.7390476" ry="12.0992182"></ellipse>
            <ellipse id="spectacle" stroke="#979797" fill="url(#radialGradient-17)" cx="74.5751812" cy="79.8548401" rx="14.7390476" ry="12.0992182"></ellipse>
            <path d="M90.4141578,71.715366 C91.8807297,72.5953092 91.8807297,75.8950959 90.4141578,81.6147264 C88.2142999,90.194172 82.0546979,95.3182207 82.0546979,101.413447 C82.0546979,107.508673 85.024506,109.992893 90.4141578,109.992893 C95.8038095,109.992893 100.973475,103.833291 104.053276,106.033149 C107.133077,108.233006 97.9553021,109.992893 100.313518,109.992893 C102.671734,109.992893 110.212878,112.430258 110.212878,106.033149 C110.212878,101.768409 108.672978,97.0753789 105.593177,91.9540583" id="Path-3" stroke="#4D4C4C"></path>
            <path d="M92.6140156,116.812452 C92.6140156,126.711812 105.593177,126.271841 114.83258,131.111528 C124.071983,135.951215 121.322698,145.136613 124.071983,144.090689 C126.821268,143.044766 131.64419,139.430616 127.37177,129.461635 C123.099349,119.492653 117.211247,114.736058 110.212878,111.752779 C103.21451,108.7695 92.6140156,112.075474 92.6140156,116.812452 Z" id="Path-4" stroke="#979797"></path>
            <path d="M94.5626519,113.454487 C97.9509742,110.7698 105.058798,109.555687 110.212878,111.752779 C117.211247,114.736058 123.099349,119.492653 127.37177,129.461635 C131.64419,139.430616 126.821268,143.044766 124.071983,144.090689 C121.322698,145.136613 124.071983,135.951215 114.83258,131.111528 C107.659354,127.354124 98.2319672,126.779063 94.3742625,122.077231 C90.4243582,126.611911 81.1496961,127.220598 74.0704903,130.928754 C64.8310873,135.768441 67.5803721,144.953839 64.8310873,143.907915 C62.0818025,142.861991 57.2588798,139.247842 61.5313005,129.27886 C65.8037212,119.309879 71.691823,114.553284 78.6901918,111.570005 C83.9598308,109.323652 91.2718044,110.643183 94.5626519,113.454487 Z" id="mustache" fill="#292929"></path>
            <polygon id="shirt-back-panel" fill="#F3F3F3" points="84.03457 198.427178 109.772907 185.668003 135.951215 195.347377 128.471699 224.825473 96.1337882 224.825473"></polygon>
            <g id="tie" transform="translate(92.834001, 186.987918)">
                <polygon id="Path-5" fill="url(#linearGradient-5)" points="0 8.13947406 18.0388344 0.219985785 36.5176404 8.13947406 26.61828 23.7584648 11.4392608 23.7584648"></polygon>
                <polygon id="Path-5" fill="url(#linearGradient-6)" transform="translate(19.248756, 51.036702) scale(1, -1) translate(-19.248756, -51.036702) " points="3.29978678 64.6758209 19.2487562 23.7584648 35.1977257 64.6758209 26.61828 78.3149396 11.4392608 78.3149396"></polygon>
            </g>
            <g id="collar">
                <use fill="black" fill-opacity="1" filter="url(#filter-19)" xlink:href="#path-18"></use>
                <use fill="url(#linearGradient-7)" fill-rule="evenodd" xlink:href="#path-18"></use>
            </g>
            <path d="M129.131656,80.954769 C135.73123,148.563734 147.023833,184.641403 163.009467,189.187775" id="Path-2" stroke="#313131" stroke-width="2"></path>
            <path d="M89.5342146,78.9748969 C91.4407581,77.6549822 93.1273158,76.9950249 94.5938877,76.9950249 C96.0604596,76.9950249 97.6736887,77.6549822 99.433575,78.9748969" id="Path-7" stroke="#979797"></path>
        </g>
        <g id="SpecTapular" fill="#000000" fill-opacity="1">
            <use filter="url(#filter-21)" xlink:href="#text-20"></use>
            <use xlink:href="#text-20"></use>
        </g>
        <path d="M1170,641.5 L1170,903.5 L1432.5,934 C1441.83333,906.333333 1473,892.5 1526,892.5 C1538.56895,892.5 1594.5,923 1676,923 C1757.5,923 1919.5,865.5 1958.5,903.5 C2002.0813,945.96383 1985,1081.5 1992.5,1092.5 C2000,1103.5 2047.38348,1108 2068.5,1108 C2117.5,1108 2161.83333,1097.16667 2201.5,1075.5 C2208.00249,923.116574 2181.83582,817.283241 2123,758 C1991.5,625.5 1835,735 1835,561.5 C1835,554.554789 1835,538.888122 1835,514.5 C1852,502.833333 1861,495.833333 1862,493.5 C1863,491.166667 1864.16667,477.833333 1865.5,453.5 C1874.5,452.166667 1880,450.5 1882,448.5 C1885,445.5 1885.5,402.5 1881,396 C1878.38786,392.226903 1866.98462,394.360058 1851.83071,393.874484 C1840.87864,393.523548 1827.96748,391.804776 1815,385.5 C1781.77378,369.34545 1754.19308,329.664494 1757.5,312.5 C1789,149 1992.45009,337.982029 2010,222 C2033,70 1924.25637,152.683136 1811,146 C1771.3133,143.658131 1733.02764,107.923557 1701.5,89.5 C1664.26907,111.285784 1629.13213,142.121398 1582.5,146 C1485.71967,154.04965 1389,76 1395,198.5 C1401.98146,341.03818 1656.04344,146.542732 1656.04344,312.5 C1656.04344,343.117965 1639.13072,343.117965 1620.5,355.5 C1607.44103,364.179034 1597.4634,375.470408 1582.5,379.5 C1557.21688,386.308657 1527.65197,380.585518 1526,388.5 C1524.43256,396.009472 1521.68687,421.298056 1526,430.5 C1530.31313,439.701944 1545.37193,434 1549.43597,439 C1553.5,444 1547,471.5 1549.43597,476.023478 C1551.87193,480.546956 1562.5,486.5 1571,493.5 C1567.5,532 1569.61437,551.379585 1564,574 C1554.02577,614.186393 1535.89487,639.035641 1501.5,648.5 C1478.57009,654.809573 1457.40342,645.476239 1438,620.5 L1170,641.5 Z" id="Path-6" fill-opacity="0.4" fill="#797979"></path>
    </g>
</svg>